<svg width="51" height="20" viewBox="0 0 51 20" fill="none" xmlns="http://www.w3.org/2000/svg">
<path d="M0 8.35533C0.0870567 7.95955 0.174113 7.56377 0.26117 7.18076C1.33072 2.87826 4.86274 0.0312084 9.20313 0.00567425C12.4367 -0.00709281 15.6702 0.00567425 18.9037 0.00567425C26.4777 0.00567425 34.0516 0.00567425 41.6255 0.00567425C45.7545 0.00567425 49.1497 2.49525 50.468 6.45304C50.667 7.06586 50.7789 7.72975 50.9406 8.35533C50.9406 9.31286 50.9406 10.2576 50.9406 11.2152C50.7913 11.8535 50.6794 12.5046 50.468 13.1174C49.1497 17.088 45.7545 19.5648 41.6255 19.5648C34.0516 19.5776 26.4777 19.5648 18.9037 19.5648C15.6702 19.5648 12.4367 19.5776 9.20313 19.5648C4.86274 19.5393 1.33072 16.6922 0.26117 12.3897C0.161677 11.9939 0.0870567 11.6109 0 11.2152C0 10.2576 0 9.30009 0 8.35533ZM25.4703 16.2964C30.8429 16.2964 36.2156 16.2964 41.5882 16.2964C42.7199 16.2964 43.7895 16.0666 44.772 15.4666C47.4086 13.8452 48.2294 11.1003 47.5951 7.99786C46.9982 5.09973 44.5854 3.24851 41.6255 3.24851C32.2607 3.24851 22.8959 3.24851 13.5311 3.24851C12.0884 3.24851 10.6458 3.24851 9.20313 3.24851C8.12114 3.24851 7.10134 3.50385 6.16859 4.07837C3.51958 5.71255 2.7485 8.4447 3.37034 11.5216C3.94242 14.3942 6.36757 16.2837 9.27775 16.2964C14.6504 16.3092 20.0603 16.2964 25.4703 16.2964Z" fill="url(#paint0_linear_582_3631)"/>
<defs>
<linearGradient id="paint0_linear_582_3631" x1="17.3427" y1="-2.0819" x2="25.899" y2="21.7712" gradientUnits="userSpaceOnUse">
<stop stop-color="#356ACC"/>
<stop offset="1" stop-color="#356ACC" stop-opacity="0"/>
</linearGradient>
</defs>
</svg>
