<svg width="43" height="44" viewBox="0 0 43 44" fill="none" xmlns="http://www.w3.org/2000/svg">
<path opacity="0.3" d="M21.5 2V7M35.2887 7.85778L31.8415 11.3933M41 22H36.125M35.2887 36.1422L31.8415 32.6067M21.5 37V42M11.1585 32.6067L7.71133 36.1422M6.875 22H2M11.1585 11.3933L7.71133 7.85778M29.625 22C29.625 24.2101 28.769 26.3298 27.2452 27.8926C25.7215 29.4554 23.6549 30.3333 21.5 30.3333C19.3451 30.3333 17.2785 29.4554 15.7548 27.8926C14.231 26.3298 13.375 24.2101 13.375 22C13.375 19.7899 14.231 17.6702 15.7548 16.1074C17.2785 14.5446 19.3451 13.6667 21.5 13.6667C23.6549 13.6667 25.7215 14.5446 27.2452 16.1074C28.769 17.6702 29.625 19.7899 29.625 22Z" stroke="url(#paint0_linear_582_3626)" stroke-width="3" stroke-linecap="round" stroke-linejoin="round"/>
<defs>
<linearGradient id="paint0_linear_582_3626" x1="2.16667" y1="-1.93162" x2="30.1274" y2="34.3697" gradientUnits="userSpaceOnUse">
<stop stop-color="#675D5D"/>
<stop offset="1" stop-opacity="0"/>
</linearGradient>
</defs>
</svg>
